<svg xmlns="http://www.w3.org/2000/svg" xmlns:xlink="http://www.w3.org/1999/xlink" width="361" height="438" viewBox="0 0 361 438">
    <defs>
        <radialGradient id="b" cx="45.059%" cy="11.944%" r="95.487%" fx="45.059%" fy="11.944%" gradientTransform="matrix(.1982 .92218 -.79443 .65018 .456 -.374)">
            <stop offset="0%" stop-color="#514995"/>
            <stop offset="100%" stop-color="#242244"/>
        </radialGradient>
        <path id="a" d="M40.82.132C34.225 7.48 29.547 11.85 26.785 13.24c-4.141 2.087-10.564 4.27-13.603 4.27-3.038 0-7.244-.069-9.462 2.08C1.5 21.74.733 23.328.733 25.847c0 2.518 3.312 5.574 10.216 6.682 6.904 1.108 37.822 3.885 47.741 2.496 9.92-1.388 10.874-2.793 10.874-7.403 0-4.61-2.203-10.477-2.203-12.861 0-1.59-.594-4.32-1.782-8.189L40.82.132z"/>
        <radialGradient id="e" cx="45.059%" cy="11.944%" r="90.987%" fx="45.059%" fy="11.944%" gradientTransform="matrix(.20801 .96779 -1.3441 .42324 .517 -.367)">
            <stop offset="0%" stop-color="#514995"/>
            <stop offset="100%" stop-color="#242244"/>
        </radialGradient>
        <path id="d" d="M.885 10.596c-.13 4.092.393 6.848 1.57 8.265 1.764 2.126 11.188 5.52 13.848 7.688 2.66 2.169 4.647 5.989 9.754 5.989 5.107 0 11.285.293 13.062-2.848 1.776-3.14-.351-11.246-1.096-13.187-.745-1.941-1.067-3.264-1.067-5.117V6.303L16.303.371l-5.505 4.007a68.321 68.321 0 0 0-6.636 1.925C1.977 7.058.885 8.49.885 10.596z"/>
        <radialGradient id="g" cx="45.059%" cy="11.944%" r="93.339%" fx="45.059%" fy="11.944%" gradientTransform="matrix(.20277 .9434 -.96953 .55756 .475 -.372)">
            <stop offset="0%" stop-color="#514995"/>
            <stop offset="100%" stop-color="#242244"/>
        </radialGradient>
        <radialGradient id="h" cx="45.059%" cy="11.944%" r="99.991%" fx="45.059%" fy="11.944%" gradientTransform="matrix(.18928 .88064 -.59142 .79646 .436 -.372)">
            <stop offset="0%" stop-color="#514995"/>
            <stop offset="100%" stop-color="#242244"/>
        </radialGradient>
        <linearGradient id="j" x1="100%" x2="-32.817%" y1="30.046%" y2="127.124%">
            <stop offset="0%" stop-color="#FFD4D4"/>
            <stop offset="100%" stop-color="#FFA9A9"/>
        </linearGradient>
        <path id="i" d="M33.107 11.466c-4.573 2.065-8.031 3.098-10.374 3.098-3.515 0-11.636-1.55-13.932-1.55-1.53 0-2.558-.515-3.084-1.548-1.606.45-2.898.45-3.877 0-1.468-.675-2.364-3.117 0-4.434 2.365-1.317 8.246-2.453 10.524-3.403 2.278-.95 8.968-3.09 13.862-3.09l6.88 10.927z"/>
        <linearGradient id="k" x1="68.919%" x2="0%" y1="72.096%" y2="32.996%">
            <stop offset="0%" stop-color="#FAC7C7"/>
            <stop offset="100%" stop-color="#FE8E8E"/>
        </linearGradient>
        <path id="m" d="M.283 25.494c1.125 9.374 1.95 14.651 2.477 15.831.79 1.77 4.185 2.927 4.185 4.244 0 1.317-1.337 12.063 0 12.743.891.453 1.95.83 3.178 1.129 4.546 5.26 8.094 7.89 10.644 7.89 2.55 0 5.877-2.394 9.98-7.181v-6.327l23.064-7.41c-2.681-5.05-4.228-9.798-4.64-14.246-.617-6.673 1.144-16.4-2.761-22.093-3.905-5.693-15.637-12.687-28.003-7.33C10.163 6.317 4.122 13.9.283 25.495z"/>
        <radialGradient id="p" cx="45.059%" cy="11.944%" r="91.372%" fx="45.059%" fy="11.944%" gradientTransform="matrix(.20713 .9637 -1.2569 .4488 .507 -.368)">
            <stop offset="0%" stop-color="#514995"/>
            <stop offset="100%" stop-color="#242244"/>
        </radialGradient>
        <path id="o" d="M4.143 29.716c-2.55-1.47-3.825-3.18-3.825-5.13 0-2.924 4.704-12.78 18.75-20.554 14.044-7.773 28.979-.753 32.95 6.918 2.647 5.114 3.8 15.462 3.46 31.046l-11.447 1.49c-4.193-1.278-7.653-2.896-10.381-4.852-1.513-9.697-3.253-12.815-6.692-12.815-3.755 0-7.056 5.907-8.505 5.907-.966 0-4.237-1.97-9.812-5.91l-4.498 3.9z"/>
        <linearGradient id="q" x1="60.419%" x2="50%" y1="-25.274%" y2="32.172%">
            <stop offset="0%" stop-color="#514995"/>
            <stop offset="100%" stop-color="#242244"/>
        </linearGradient>
        <radialGradient id="t" cx="45.059%" cy="11.944%" r="334.894%" fx="45.059%" fy="11.944%" gradientTransform="matrix(.05651 .26294 -1.67836 .02502 .626 -.002)">
            <stop offset="0%" stop-color="#514995"/>
            <stop offset="100%" stop-color="#242244"/>
        </radialGradient>
        <path id="s" d="M5.101 57.414c0 4.584.058 8.058.882 10.918.823 2.859 1.205 4.433 1.205 7.44 0 3.006 1.323 6.881 1.323 8.684 0 1.802 3.604 5.97 3.604 8.577 0 2.608 2.313 4.214 2.313 6.86 0 2.644-1.07 9.042-1.07 11.665 0 2.624-3.971 25.185-4.41 28.413-.437 3.229 0 7.394 0 9.122 0 1.728 1.326 4.033-.76 5.446-2.087 1.413-5.037 3.431-5.037 6.644v7.92l-2.927 4.023 2.927 4.324s18.536 3.6 19.783 3.6c1.246 0 2.991-4.929 2.991-7.924s11.01-26.238 13.737-40.896c2.727-14.659 1.892-34.728 1.892-39.197 0-4.468-.809-13.816-.809-18.12 0-4.303 1.083-8.047 0-11.082-.722-2.024 1.585-22.997 6.92-62.92L3.151 9.27c1.3 29.039 1.95 45.086 1.95 48.143z"/>
        <linearGradient id="u" x1="114.544%" x2="63.985%" y1="-184.182%" y2="100%">
            <stop offset="0%" stop-color="#514995"/>
            <stop offset="100%" stop-color="#242244"/>
        </linearGradient>
        <radialGradient id="w" cx="45.059%" cy="11.944%" r="215.817%" fx="45.059%" fy="11.944%" gradientTransform="matrix(.0877 .40801 -1.67457 .06038 .611 -.072)">
            <stop offset="0%" stop-color="#514995"/>
            <stop offset="100%" stop-color="#242244"/>
        </radialGradient>
        <radialGradient id="y" cx="45.059%" cy="11.944%" r="117.509%" fx="45.059%" fy="11.944%" gradientTransform="matrix(.16106 .74936 -1.6591 .20558 .576 -.243)">
            <stop offset="0%" stop-color="#514995"/>
            <stop offset="100%" stop-color="#242244"/>
        </radialGradient>
        <path id="x" d="M37.485 51.083c1.518-15.065 4.41-24.817 8.674-29.256 6.397-6.66 21.826-14.888 29.06-17.194C82.45 2.328 93.306-1.052 100.924.638c7.618 1.69 20.881 9.935 29.422 19.2 8.54 9.263 15.139 20.858 15.139 24.711 0 3.853-.927 9.99-.927 15.093s-.795 19.542-2.246 31.88c-1.45 12.338-6.783 22.48-8.25 24.563-.979 1.389-3.024 2.868-6.137 4.439.687 26.83 1.031 42.312 1.031 46.446 0 6.2-1.046 9.095-2.142 11.61-1.096 2.515-2.421 6.624-12.872 10.842-10.451 4.217-25.679 1.573-32.707-4.017-7.027-5.59-12.344-12.618-19.815-15.526-7.471-2.909-14.524 0-16.251 0-1.152 0-2.91 1.069-5.272 3.207 2.823-9.813 5.405-16.909 7.748-21.287 3.513-6.568 3.513-8.966 3.513-13.617 0-4.65-2.101-10.635-2.101-13.6 0-1.978 1.159-5.863 3.476-11.657v-4.248c-4.304 3.53-7.029 6-8.172 7.408-1.716 2.112-10.455 10.9-13.2 12.362-2.745 1.462-6.744 0-8.672 0-1.928 0-7.441-1.258-8.728-1.258-1.286 0-6.344-.672-9.152-1.64-2.808-.968-4.385-2.367-4.385-5.025v-7.599c5.629-1.254 9.292-2.276 10.99-3.064 2.547-1.184 9.227-13.043 11.275-14.021 2.048-.978 3.915-.309 3.915-3.095 0-2.787-1.738-5.946 0-9.013 1.738-3.068 4.452-9.914 5.62-12.678.779-1.843 2.599-8.5 5.46-19.97z"/>
        <radialGradient id="A" cx="45.059%" cy="11.944%" r="502.772%" fx="45.059%" fy="11.944%" gradientTransform="matrix(.03764 .17514 -1.67985 .0111 .634 .04)">
            <stop offset="0%" stop-color="#514995"/>
            <stop offset="100%" stop-color="#242244"/>
        </radialGradient>
        <radialGradient id="B" cx="45.059%" cy="11.944%" r="91.162%" fx="45.059%" fy="11.944%" gradientTransform="matrix(.20761 .96593 -1.3025 .43509 .513 -.368)">
            <stop offset="0%" stop-color="#514995"/>
            <stop offset="100%" stop-color="#242244"/>
        </radialGradient>
        <path id="C" d="M42.535.187c-.085 9.701-.633 16.269-1.646 19.703-1.518 5.152-3.726 11.431-5.485 16.08-1.759 4.65-5.415 9.24-7.14 9.24-1.149 0-4.88-1.36-11.19-4.082l-2.356 12.414L.734 38.065l11.77-28.71L42.535.186z"/>
        <linearGradient id="E" x1="178.536%" x2="39.993%" y1="-85.905%" y2="89.603%">
            <stop offset="0%" stop-color="#FAC7C7"/>
            <stop offset="100%" stop-color="#FE8E8E"/>
        </linearGradient>
        <radialGradient id="G" cx="45.059%" cy="11.944%" r="162.919%" fx="45.059%" fy="11.944%" gradientTransform="matrix(.11617 .54049 -1.66966 .10627 .598 -.137)">
            <stop offset="0%" stop-color="#514995"/>
            <stop offset="100%" stop-color="#242244"/>
        </radialGradient>
        <path id="F" d="M20.628.31C35.76 11.627 45.88 21.491 50.986 29.9c7.659 12.614 16.78 30.245 16.78 35.744 0 5.498-1.813 9.208 0 18.405 1.814 9.198 6.764 21.845 9.718 32.968 1.97 7.415 3.086 15.36 3.349 23.836h-27.67c-5.927 0-15.711 3.331-20.496 3.331-3.19 0-7.202.654-12.04 1.961l-5.954 1.738c1.813-25.33 1.813-41.564 0-48.702C11.953 88.474 2.026 59.43.613 47.915c-.94-7.677 5.73-23.546 20.015-47.606z"/>
        <radialGradient id="I" cx="45.059%" cy="11.944%" r="135.802%" fx="45.059%" fy="11.944%" gradientTransform="matrix(.293 .35048 -.18432 1.57441 .34 -.227)">
            <stop offset="0%" stop-color="#514995"/>
            <stop offset="100%" stop-color="#242244"/>
        </radialGradient>
        <radialGradient id="J" cx="45.059%" cy="11.944%" r="338.965%" fx="45.059%" fy="11.944%" gradientTransform="matrix(.05584 .25978 -1.67842 .02442 .626 0)">
            <stop offset="0%" stop-color="#514995"/>
            <stop offset="100%" stop-color="#242244"/>
        </radialGradient>
        <radialGradient id="L" cx="45.059%" cy="11.944%" r="125.792%" fx="45.059%" fy="11.944%" gradientTransform="matrix(.15046 .70001 -1.6619 .17909 .581 -.217)">
            <stop offset="0%" stop-color="#514995"/>
            <stop offset="100%" stop-color="#242244"/>
        </radialGradient>
        <path id="K" d="M17.294 111.002c3.686-4.524 7.735-30.8 10.535-38.389 2.8-7.588 17.536-19.713 21.485-30.397 3.948-10.684 4.647-10.662 8.989-13.453 4.341-2.79 15.768-8.67 16.67-8.67.904 0 .963 12.25.963 12.25s4.5-6.349 3.273-14.4C77.983 9.89 61.124 1.098 52.142.188c-8.983-.91-21.77 5.853-24.93 15.585-3.162 9.732.156 23.568-2.49 31.442-2.647 7.874-22.053 21.44-23.665 36.481-1.612 15.043 9.49 25.077 16.237 27.306z"/>
        <linearGradient id="M" x1="60.419%" x2="56.737%" y1="-25.274%" y2="83.794%">
            <stop offset="0%" stop-color="#514995"/>
            <stop offset="100%" stop-color="#242244"/>
        </linearGradient>
        <linearGradient id="O" x1="45.059%" x2="63.985%" y1="11.944%" y2="100%">
            <stop offset="0%" stop-color="#514995"/>
            <stop offset="100%" stop-color="#242244"/>
        </linearGradient>
        <path id="P" d="M52.37 11.096l7.342-2.17c1.216.071 2.117.19 2.704.355 1.078-.425 1.863-.749 1.863-.749s.439-2.831.439-3.938c0-1.108 1.083-4.202 1.992-4.202s.606 8.993.606 9.825c0 .833-9.022 9.114-12.076 10.131-2.036.678-20.118 3.202-54.245 7.572.71-2.021 1.439-3.899 2.188-5.632.75-1.734 1.163-5.924 1.242-12.571 19.094 1.518 30.027 2.027 32.798 1.528 2.872-.518 10.375-.32 15.147-.149z"/>
    </defs>
    <g fill="none" fill-rule="evenodd">
        <g transform="translate(58.165 402.417)">
            <mask id="c" fill="#fff">
                <use xlink:href="#a"/>
            </mask>
            <use fill="url(#b)" fill-rule="nonzero" xlink:href="#a"/>
            <path fill="#FFF" fill-rule="nonzero" d="M.022 21.501c2.377 3.125 6.085 5.235 11.125 6.33 7.56 1.64 48.606 1.843 52.863.921 2.839-.614 5.645-1.978 8.419-4.092v10.73l-13.704 7.808L2.688 34.52l-6.267-5.767 3.6-7.251z" mask="url(#c)"/>
        </g>
        <g transform="translate(128.526 404.293)">
            <mask id="f" fill="#fff">
                <use xlink:href="#d"/>
            </mask>
            <use fill="url(#e)" fill-rule="nonzero" xlink:href="#d"/>
            <path fill="#FFF" fill-rule="nonzero" d="M-.916 11.042c2.982 3.09 6.032 5.26 9.149 6.513 4.675 1.879 7.13 2.87 10.387 5.26 3.256 2.39 6.019 3.791 11.881 3.791 5.863 0 11.424-3.79 11.424-3.79l3.102 11.012-5.516 5.442L5.418 26.606l-4.019-3.79-2.315-11.774z" mask="url(#f)"/>
        </g>
        <path fill="url(#g)" fill-rule="nonzero" d="M27.914 177.58h-1.83c-.66.044-1.456-.392-2.386-1.308-.93-.917-8.523-15.357-22.776-43.323.126-1.355.704-2.033 1.734-2.033h59.028c.502 0 5.693 8.777 15.572 26.33L27.914 177.58z"/>
        <path fill="#FFF" fill-rule="nonzero" d="M24.684 171.118l13.382-1.172 33.463-16.684-11.194-20.087-55.413.44z"/>
        <path fill="url(#h)" fill-rule="nonzero" d="M30.245 178.863c-1.952 0-4.003-1.558-4.003-2.538 0-.98 37.113-23.208 39.05-23.208 1.936 0 27.742-.938 27.742-.938l-21.525 24.146c-26.209 1.692-39.964 2.538-41.264 2.538z"/>
        <g transform="translate(43 168)">
            <mask id="l" fill="#fff">
                <use xlink:href="#i"/>
            </mask>
            <use fill="url(#j)" xlink:href="#i"/>
            <path fill="url(#k)" d="M-1.507 11.134c15.475 1.491 27.515.406 36.12-3.257C43.22 4.214 49.106 2.593 52.27 3.014l-10.8 18.5-23.632 1.999-19.344-12.379z" mask="url(#l)"/>
        </g>
        <g transform="translate(112 1)">
            <mask id="n" fill="#fff">
                <use xlink:href="#m"/>
            </mask>
            <use fill="url(#j)" xlink:href="#m"/>
            <path fill="url(#k)" d="M20.87 19.913c3.793 6.73 5.69 13.649 5.69 20.757 0 7.108-5.302 17.252-15.905 30.431l23.104 1.803 39.168-27.9-52.056-25.09z" mask="url(#n)"/>
        </g>
        <g transform="translate(108)">
            <mask id="r" fill="#fff">
                <use xlink:href="#o"/>
            </mask>
            <use fill="url(#p)" fill-rule="nonzero" xlink:href="#o"/>
            <path fill="url(#q)" fill-rule="nonzero" d="M1.443 33.054c9.107-11.755 18.584-18.647 28.43-20.676 9.847-2.03 20.023.228 30.53 6.774v26.746l-44.626 5.56L1.443 33.054z" mask="url(#r)"/>
        </g>
        <path fill="#FFF" fill-rule="nonzero" d="M140.295 60.493c-.33-3.086.67-5.938 3.002-8.557 3.498-3.927 9.94-7.053 16.494-7.053s9.276 1.455 9.869 2.437c.395.656 1.746 3.75 4.053 9.284l-33.418 3.89z"/>
        <g transform="translate(143 232)">
            <mask id="v" fill="#fff">
                <use xlink:href="#s"/>
            </mask>
            <use fill="url(#t)" fill-rule="nonzero" xlink:href="#s"/>
            <path fill="url(#u)" fill-rule="nonzero" d="M-.082 53.637L20.134 5.066 9.587 1.056-.082 26.788z" mask="url(#v)"/>
        </g>
        <g transform="translate(67.546 54.406)">
            <path fill="url(#w)" fill-rule="nonzero" d="M41.673 166.97c-1.515 4.956-2.868 8.539-4.058 10.75-1.785 3.316-1.598 5.443-3.137 8.271-1.54 2.828-.91 2.772-2.147 5.836-1.237 3.065-4.793 13.32-6.79 19.547-1.997 6.227-5.917 22.294-6.731 24.845-.814 2.552-3.883 8.043-3.883 9.234 0 1.19-1.2 6.126-1.2 9.021 0 2.896 1.2 7.39 1.2 9.3 0 1.909 3.883 4.023 3.883 5.777 0 1.754 1.416 12.793 1.416 16.661 0 3.868 8.845 37.707 8.845 40.656v8.412c0 1.73 4.358 3.558 3.26 5.563-1.098 2.005-4.63 3.493-4.63 5.35 0 1.856 2.404 7.828 3.517 9.41 1.113 1.58 4.674 5.226 4.674 5.226h20.515c1.532 0 1.586-10.362.793-13.066-.793-2.704-.84-2.91 0-6.92s0-12.591 0-15.245c0-2.653-.58-36.015-.58-40.847 0-4.832-1.67-9.048-1.67-10.045 0-.998-1.854-5.764-1.854-6.558 0-.794-1.341-4.616-1.341-5.432 0-.816 1.341-3.748 1.341-5.33 0-1.583 1.951-5.042 2.738-6.263.787-1.22 36.034-56.954 39.233-63.143 2.133-4.127-3.972-13.044-18.317-26.75l-35.077 5.74z"/>
            <mask id="z" fill="#fff">
                <use xlink:href="#x"/>
            </mask>
            <use fill="url(#y)" fill-rule="nonzero" xlink:href="#x"/>
            <path fill="url(#u)" fill-rule="nonzero" d="M131.425 121.896v-17.183c0-3.906 5.81-15.279 5.81-18.958V72.92c-3.703 8.603-6.236 16.765-7.599 24.488-1.362 7.723-1.983 16.661-1.863 26.816l3.652-2.328zM46.369 117.392c4.666-7.193 7.556-12.011 8.667-14.455 1.668-3.665 2.765-4.533 2.217-7.3-.549-2.769-.963-4.466 0-5.846.962-1.38 6.706-9.529 6.706-14.387 0-4.859 1.367-23.056 1.367-26.45 0-3.395 2.003-3.328 2.003 2.412s2.002 19.2 0 24.275c-2.003 5.074-4.657 11.773-4.657 14.15v13.146c0 2.852-5.434 7.67-16.303 14.455z" mask="url(#z)"/>
        </g>
        <g>
            <path fill="url(#A)" fill-rule="nonzero" d="M85.399 241.2c3.24 25.387 4.861 41.242 4.861 47.565 0 9.485-6.568 43.284-9.309 51.415-1.827 5.42-6.117 14.61-12.87 27.57L85.399 241.2z" transform="translate(194.636 10.006)"/>
            <path fill="url(#j)" d="M143.217 144.535c-.058-5.423-.534-8.134-1.427-8.134-1.34 0-1.48 8.315-1.48 9.02 0 .471.969.176 2.907-.886z" transform="translate(194.636 10.006)"/>
            <path fill="url(#B)" fill-rule="nonzero" d="M64.24 58.392c-2.956 6.129-6.395 10.014-10.317 11.656C50 71.689 46.077 72.26 42.152 71.76l4.998-17.544 17.09 4.175z" transform="translate(194.636 10.006)"/>
            <g transform="translate(228.636 27.006)">
                <mask id="D" fill="#fff">
                    <use xlink:href="#C"/>
                </mask>
                <use fill="url(#j)" xlink:href="#C"/>
                <path fill="url(#k)" d="M19.742 7.366c-2.334 12.592-2.334 20.874 0 24.847 2.333 3.973 6.682 8.29 13.045 12.95L13.174 58.865-2.782 34.877 19.742 7.366z" mask="url(#D)"/>
                <path fill="url(#E)" d="M32.18 49.04L13.037 36.66l2.982 20.407z" mask="url(#D)"/>
            </g>
            <g transform="translate(208.915 62.613)">
                <mask id="H" fill="#fff">
                    <use xlink:href="#F"/>
                </mask>
                <use fill="url(#G)" fill-rule="nonzero" xlink:href="#F"/>
                <path fill="url(#u)" fill-rule="nonzero" d="M22.655 52.138c12.664 33.986 19.927 52.178 21.79 54.574 1.862 2.396 7.79 4.084 17.785 5.064-9.704-1.297-15.633-1.297-17.786 0-2.153 1.297-4.656 2.688-7.508 4.172 1.847-2.758 2.77-6.43 2.77-11.016s-5.684-22.184-17.05-52.794zM72.572 92.332c-6.257-1.275-9.972-1.912-11.143-1.912-1.172 0-3.133.319-5.886.956 2.043-4.103 3.064-7.24 3.064-9.413v-5.918c.129 6.839 1.07 10.75 2.822 11.736 1.752.986 5.467 2.502 11.143 4.55z" mask="url(#H)"/>
            </g>
            <path fill="url(#j)" d="M31.916.235C21.184 8.203 15.818 12.46 15.818 13.007c0 .82 13.557 1.402 22.283 0 5.818-.935 11.588-3.634 17.31-8.097L31.915.235z" transform="scale(-1 1) rotate(3 -8001.907 -5297.24)"/>
            <path fill="url(#I)" fill-rule="nonzero" d="M18.562 11.27c-9.11 1.397-14.301 2.806-15.572 4.227-1.27 1.421-2.023 2.904-2.257 4.45 3.755 1.093 8.215 1.64 13.38 1.64 7.75 0 38.995-2.709 41.526-3.934 2.53-1.225.686-13.634-.907-13.634-1.592 0-6.538 5.629-14.158 6.44-5.08.54-12.417.81-22.012.81z" transform="scale(-1 1) rotate(3 -8001.907 -5297.24)"/>
            <path fill="url(#J)" fill-rule="nonzero" d="M52.628 1.09c2.88 15.607 4.32 26.814 4.32 33.622 0 10.212-10.155 72.877-10.155 81.004 0 8.126-1.775 18.159-1.775 24.005 0 5.845-3.773 15.461-3.773 21.544v36.797c0 8.601-1.826 14.691-1.826 16.328 0 1.636-10.69 5.05-18.412 5.05-5.147 0-11.312-.573-18.493-1.719.585-13.389 1.521-24.988 2.809-34.796 1.93-14.713 3.464-44.562 3.464-55.203 0-10.642 4.505-20.719 4.505-23.48 0-2.762-1.978-4.716 0-9.306 1.979-4.59 2.363-10.964 2.363-10.964s-.187-30.324-1.275-35.1c-1.088-4.776-9.707-14.875-11.866-18.34C1.074 28.222.263 20.364.08 6.957 10.187 4.867 18.225 3.244 24.19 2.09c5.967-1.155 15.446-1.488 28.437-1z" transform="translate(227.713 201.706)"/>
            <g transform="translate(194.636 10.006)">
                <mask id="N" fill="#fff">
                    <use xlink:href="#K"/>
                </mask>
                <use fill="url(#L)" fill-rule="nonzero" xlink:href="#K"/>
                <path fill="url(#M)" fill-rule="nonzero" d="M21.864 2.701c-.018 26.874 1.85 43.367 5.604 49.479 3.755 6.112 11.386 12.06 22.895 17.843l-36.507 60.888-29.105-21.1 9.191-36.935L21.864 2.701z" mask="url(#N)"/>
            </g>
            <g fill="url(#O)" fill-rule="nonzero" transform="rotate(-2 2970.25 -7790.272)">
                <path d="M.173 56.212l57.912 3.328.818-3.348-58.73-3.396z"/>
                <path d="M58.058 59.476l29.15-58.461L85.156.2 56.523 57.02z"/>
            </g>
            <path fill="url(#u)" fill-rule="nonzero" d="M79.494 305.006c5.43-9.715 8.145-15.138 8.145-16.267 0-1.13-2.715 2.45-8.145 10.741v5.526z" transform="translate(194.636 10.006)"/>
            <g transform="translate(272.636 145.006)">
                <mask id="Q" fill="#fff">
                    <use xlink:href="#P"/>
                </mask>
                <use fill="url(#j)" xlink:href="#P"/>
                <path fill="url(#k)" d="M-1.023 19.355c30.199-.465 47.91-1.175 53.132-2.13 5.222-.955 11.42-3.58 18.594-7.872l-20.4 24.073-62.06 2.748 10.734-16.819z" mask="url(#Q)"/>
            </g>
            <path fill="#FFF" fill-rule="nonzero" d="M318.452 155.777c3.806-.31 5.91-.31 6.31 0 .6.465 2.64 4.37 2.64 7.235 0 1.91-.142 3.397-.428 4.463h-5.562c.313-2.479.313-4.467 0-5.966-.312-1.498-1.299-3.409-2.96-5.732z"/>
        </g>
    </g>
</svg>
